HIERARCHY
ROOT Hips
{
	OFFSET -0.001795 -0.223333 0.028219
	CHANNELS 6 Xposition Yposition Zposition Zrotation Yrotation Xrotation 
	JOINT LeftUpLeg
	{
		OFFSET 0.069520 -0.091406 -0.006815
		CHANNELS 3 Zrotation Yrotation Xrotation
		JOINT LeftLeg
		{
			OFFSET 0.034277 -0.375199 -0.004496
			CHANNELS 3 Zrotation Yrotation Xrotation
			JOINT LeftFoot
			{
				OFFSET -0.013596 -0.397961 -0.043693
				CHANNELS 3 Zrotation Yrotation Xrotation
				JOINT LeftToe
				{
					OFFSET 0.026358 -0.055791 0.119288
					CHANNELS 3 Zrotation Yrotation Xrotation
					End Site
					{
						OFFSET 0.000000 0.000000 0.000000
					}
				}
			}
		}
	}
	JOINT RightUpLeg
	{
		OFFSET -0.067670 -0.090522 -0.004320
		CHANNELS 3 Zrotation Yrotation Xrotation
		JOINT RightLeg
		{
			OFFSET -0.038290 -0.382569 -0.008850
			CHANNELS 3 Zrotation Yrotation Xrotation
			JOINT RightFoot
			{
				OFFSET 0.015774 -0.398415 -0.042312
				CHANNELS 3 Zrotation Yrotation Xrotation
				JOINT RightToe
				{
					OFFSET -0.025372 -0.048144 0.123348
					CHANNELS 3 Zrotation Yrotation Xrotation
					End Site
					{
						OFFSET 0.000000 0.000000 0.000000
					}
				}
			}
		}
	}
	JOINT Spine
	{
		OFFSET -0.002533 0.108963 -0.026696
		CHANNELS 3 Zrotation Yrotation Xrotation
		JOINT Spine1
		{
			OFFSET 0.005487 0.135180 0.001092
			CHANNELS 3 Zrotation Yrotation Xrotation
			JOINT Spine2
			{
				OFFSET 0.001457 0.052922 0.025425
				CHANNELS 3 Zrotation Yrotation Xrotation
				JOINT Neck
				{
					OFFSET -0.002778 0.213870 -0.042857
					CHANNELS 3 Zrotation Yrotation Xrotation
					JOINT Head
					{
						OFFSET 0.005152 0.064970 0.051349
						CHANNELS 3 Zrotation Yrotation Xrotation
						End Site
						{
							OFFSET 0.000000 0.000000 0.000000
						}
					}
				}
				JOINT LeftShoulder
				{
					OFFSET 0.078845 0.121749 -0.034090
					CHANNELS 3 Zrotation Yrotation Xrotation
					JOINT LeftArm
					{
						OFFSET 0.090977 0.030469 -0.008868
						CHANNELS 3 Zrotation Yrotation Xrotation
						JOINT LeftForeArm
						{
							OFFSET 0.259612 -0.012772 -0.027456
							CHANNELS 3 Zrotation Yrotation Xrotation
							JOINT LeftHand
							{
								OFFSET 0.249234 0.008986 -0.001171
								CHANNELS 3 Zrotation Yrotation Xrotation
								End Site
								{
									OFFSET 0.000000 0.000000 0.000000
								}
							}
						}
					}
				}
				JOINT RightShoulder
				{
					OFFSET -0.081759 0.118833 -0.038615
					CHANNELS 3 Zrotation Yrotation Xrotation
					JOINT RightArm
					{
						OFFSET -0.096012 0.032551 -0.009143
						CHANNELS 3 Zrotation Yrotation Xrotation
						JOINT RightForeArm
						{
							OFFSET -0.253742 -0.013329 -0.021401
							CHANNELS 3 Zrotation Yrotation Xrotation
							JOINT RightHand
							{
								OFFSET -0.255298 0.007772 -0.005559
								CHANNELS 3 Zrotation Yrotation Xrotation
								End Site
								{
									OFFSET 0.000000 0.000000 0.000000
								}
							}
						}
					}
				}
			}
		}
	}
}
MOTION
Frames: 18
Frame Time: 0.050000
-0.081650 0.939238 0.100682 5.770272 -4.235505 -4.556906 2.679606 -1.794745 -31.480420 -6.435876 2.103828 32.392205 3.942714 10.046767 9.285872 0.000000 0.000000 0.000000 0.661612 -1.150657 12.064482 -5.797414 2.176762 15.533986 -1.394084 1.940473 -8.691478 0.000000 0.000000 0.000000 3.920611 -0.553287 8.330080 -0.922674 0.442087 2.203177 -0.278851 5.482861 8.343121 1.950242 -0.673695 -7.044882 0.000000 0.000000 0.000000 -26.380867 -5.432523 -0.288658 -48.898730 0.024090 -5.845179 -9.810563 -31.744556 3.841400 0.000000 0.000000 0.000000 27.781418 -1.130549 -2.194635 46.558322 -1.096983 -5.558557 0.334207 20.455151 0.849684 0.000000 0.000000 0.000000 
-0.079293 0.930834 0.130464 4.498905 -3.756359 -5.821616 2.044419 -1.857062 -28.434884 -3.803896 0.622362 18.837309 3.059381 9.278251 12.976556 0.000000 0.000000 0.000000 2.278246 -1.715962 15.464496 -7.027119 2.452948 15.362604 -1.096048 2.496536 -8.327773 0.000000 0.000000 0.000000 3.557860 -0.585028 9.354262 -1.298526 0.633555 2.732786 -0.042176 4.570130 8.770775 0.813168 0.100378 -6.816410 0.000000 0.000000 0.000000 -26.468517 -5.436731 -0.042676 -48.833462 -0.370363 -5.796495 -9.620432 -31.668980 3.834426 0.000000 0.000000 0.000000 27.185482 -0.473555 -1.932967 47.217065 -0.757104 -5.499095 -0.516236 22.668330 0.791791 0.000000 0.000000 0.000000 
-0.075659 0.921366 0.166323 3.659064 -5.282046 -6.209222 1.900134 -1.698551 -26.790388 -1.051625 -0.029792 8.911146 3.168003 9.443774 14.154804 0.000000 0.000000 0.000000 1.359985 -1.815714 18.832364 -6.028163 2.098443 14.222328 -0.880277 3.810281 -8.863725 0.000000 0.000000 0.000000 3.003085 -0.534454 9.354862 -2.197346 1.111804 2.553275 0.433842 4.276183 9.842315 -0.086395 0.654892 -6.234385 0.000000 0.000000 0.000000 -26.074718 -4.749288 0.035757 -49.459517 -1.149288 -5.795329 -8.099698 -30.875026 3.424327 0.000000 0.000000 0.000000 25.881251 -0.023870 -1.905492 48.572463 -0.021748 -5.341754 0.071010 24.068229 0.927800 0.000000 0.000000 0.000000 
-0.070525 0.912013 0.209118 2.631106 -6.377832 -6.196974 2.337401 -1.450547 -25.214522 -0.524388 -0.016143 3.301348 3.318740 9.913423 16.516660 0.000000 0.000000 0.000000 0.125815 -1.773917 22.287025 -4.606377 1.613313 12.636127 -0.640518 4.013627 -8.095507 0.000000 0.000000 0.000000 2.446606 -0.469482 8.910326 -3.254546 1.666324 2.405393 1.098405 3.432816 9.730581 -1.097551 1.263143 -5.168473 0.000000 0.000000 0.000000 -27.372938 -3.284381 -0.432789 -48.087590 -0.842022 -5.881596 -7.744422 -30.787250 3.416163 0.000000 0.000000 0.000000 26.521318 -0.341216 -2.701080 47.868176 -0.845970 -5.411088 2.436023 26.158071 1.437755 0.000000 0.000000 0.000000 
-0.063122 0.904273 0.259751 2.480870 -7.949775 -4.915864 2.216495 -1.389625 -25.249532 -1.059930 0.057940 4.335401 4.211672 11.194627 18.047197 0.000000 0.000000 0.000000 -2.423029 -1.140692 23.840220 -2.984342 1.300667 12.938797 0.487132 5.661021 -5.920287 0.000000 0.000000 0.000000 2.215243 -0.349332 6.644883 -3.581076 1.891280 3.439623 0.530778 4.090986 9.452269 -1.122315 1.374667 -6.909247 0.000000 0.000000 0.000000 -28.112757 -3.995270 -0.034893 -47.006371 -0.297637 -5.899936 -7.785807 -31.484574 3.498768 0.000000 0.000000 0.000000 26.023519 -0.106105 -2.520900 48.639845 -2.158010 -5.953641 4.120004 27.445961 1.893425 0.000000 0.000000 0.000000 
-0.053087 0.902914 0.317154 2.422439 -9.620306 -3.934069 1.769159 -1.416582 -25.842908 -1.824576 0.199840 9.690535 4.352594 11.328966 19.481500 0.000000 0.000000 0.000000 -5.362513 -0.250026 23.981013 -1.412385 1.179712 15.364766 3.001819 8.170301 -0.835429 0.000000 0.000000 0.000000 1.364971 -0.248665 5.208036 -4.727212 2.536991 3.690358 0.609746 4.745815 9.400241 -1.105797 1.442201 -8.680573 0.000000 0.000000 0.000000 -29.052686 -4.106674 0.053443 -44.526776 0.489458 -5.847665 -9.236092 -32.746913 4.071576 0.000000 0.000000 0.000000 26.369774 1.016537 -1.939004 49.310420 -3.791515 -6.635106 4.714590 28.709646 2.122077 0.000000 0.000000 0.000000 
-0.041853 0.909366 0.378167 3.210646 -9.729539 -3.182543 0.083718 -1.825949 -25.973750 -2.398109 0.429022 15.537809 4.285323 11.049644 17.616452 0.000000 0.000000 0.000000 -6.748030 0.093558 20.996686 -2.120357 2.212252 23.880080 5.010489 7.697519 5.724781 0.000000 0.000000 0.000000 -0.629278 -0.136556 4.285791 -4.907167 2.656743 4.058930 0.383547 5.746878 9.098912 -0.528553 1.157185 -9.545919 0.000000 0.000000 0.000000 -28.821945 -4.668598 0.035940 -42.766498 0.232347 -5.380814 -12.587694 -33.227525 5.053184 0.000000 0.000000 0.000000 26.461205 0.845998 -1.703260 49.987376 -4.825067 -7.205286 3.843564 27.977270 1.919627 0.000000 0.000000 0.000000 
-0.030130 0.919174 0.437040 3.311693 -8.184825 -2.885233 -2.069380 -2.236515 -23.353936 -3.213387 0.627683 16.706123 4.096699 10.628545 14.455360 0.000000 0.000000 0.000000 -6.259000 -0.113240 15.012096 -1.204743 3.323334 37.132434 6.165330 4.700523 14.151682 0.000000 0.000000 0.000000 -2.011239 -0.072399 3.775226 -4.829315 2.537478 3.280257 0.577674 4.482677 9.256971 0.382473 0.408581 -8.850954 0.000000 0.000000 0.000000 -28.194161 -5.145015 0.631675 -41.605881 0.978073 -5.548159 -16.493793 -34.719009 6.580841 0.000000 0.000000 0.000000 26.232470 1.761496 -1.316415 49.026900 -7.096843 -7.878128 4.139206 28.345698 1.973407 0.000000 0.000000 0.000000 
-0.019186 0.927548 0.490649 3.403024 -5.756105 -3.750140 -4.723669 -2.249631 -17.571428 -2.380570 0.276604 14.335059 3.337215 9.153711 10.785774 0.000000 0.000000 0.000000 -5.890105 -0.097344 7.183004 0.118582 3.927863 51.101648 4.870087 0.623816 18.440209 0.000000 0.000000 0.000000 -2.427412 -0.081062 4.600635 -3.814345 1.984190 3.470093 -0.214089 3.279791 8.902806 0.639649 0.218318 -8.691259 0.000000 0.000000 0.000000 -27.693601 -5.812407 1.000434 -40.543844 0.768046 -5.301666 -17.833330 -36.018665 7.258710 0.000000 0.000000 0.000000 25.595687 1.821514 -1.177329 48.632379 -8.353109 -8.288879 5.370396 28.260448 2.255459 0.000000 0.000000 0.000000 
-0.010243 0.934916 0.539309 3.005817 -2.393518 -4.501298 -6.527682 -1.693875 -11.287808 -1.830397 0.056878 11.445789 2.291387 6.940354 7.321605 0.000000 0.000000 0.000000 -5.265520 0.115926 -0.372606 2.095653 2.397584 59.789183 2.656263 -2.573865 18.084578 0.000000 0.000000 0.000000 -2.723343 -0.092683 5.048391 -1.816687 0.890356 3.125928 -0.777040 0.952391 9.877825 0.204084 0.315310 -6.478437 0.000000 0.000000 0.000000 -27.767558 -4.641331 0.505943 -38.297994 0.375924 -5.028150 -21.160468 -38.764669 9.129628 0.000000 0.000000 0.000000 25.855798 2.679919 -0.831205 47.449188 -9.387568 -8.491328 5.293471 28.706888 2.249711 0.000000 0.000000 0.000000 
-0.002926 0.941191 0.584907 2.294639 0.303122 -4.888929 -6.533422 -0.919738 -6.097079 -1.742378 0.013778 9.436755 1.806632 5.571473 4.991932 0.000000 0.000000 0.000000 -4.414273 0.490012 -7.307996 3.226229 0.580606 62.350000 -0.247070 -6.212935 14.380997 0.000000 0.000000 0.000000 -2.844144 -0.114891 5.952915 -0.350067 0.117678 2.239260 -1.467737 -0.835267 11.146628 -0.282555 0.599917 -5.750836 0.000000 0.000000 0.000000 -27.398820 -4.586254 0.654269 -37.676069 0.063194 -4.984139 -21.804706 -41.182000 10.061153 0.000000 0.000000 0.000000 26.353315 3.563102 -0.379693 46.691202 -10.472394 -8.812037 4.909400 29.742664 2.239269 0.000000 0.000000 0.000000 
0.002422 0.944779 0.628174 1.650661 1.717448 -5.576768 -6.179100 -0.099531 -0.628592 -1.360662 -0.008464 6.512751 1.323831 3.972901 2.898801 0.000000 0.000000 0.000000 -3.330350 0.952325 -13.427723 2.324113 0.605442 59.422824 -1.856250 -7.143378 7.248674 0.000000 0.000000 0.000000 -2.525142 -0.153492 6.589805 0.553636 -0.337393 1.769880 -2.295857 -2.087285 11.813066 -0.896062 1.014247 -5.298305 0.000000 0.000000 0.000000 -28.467779 -3.812200 0.265913 -35.610570 1.496567 -5.166439 -23.674287 -44.331269 11.731825 0.000000 0.000000 0.000000 27.618265 3.729550 -0.495494 45.659966 -12.734681 -9.403929 6.988771 31.150922 2.879613 0.000000 0.000000 0.000000 
0.006493 0.946643 0.670896 0.914493 3.617556 -5.844854 -5.325004 0.551752 4.106800 -1.646887 0.087364 3.823714 0.503775 2.062428 2.101268 0.000000 0.000000 0.000000 -2.959024 1.274838 -18.209789 1.939571 0.149280 50.816220 -2.897335 -8.150359 3.119486 0.000000 0.000000 0.000000 -2.099092 -0.181735 6.529347 1.435711 -0.758041 1.070600 -2.762643 -3.351519 12.832951 -0.484308 0.633712 -4.764229 0.000000 0.000000 0.000000 -28.926471 -3.161773 -0.071988 -33.951284 1.469068 -5.001960 -26.185870 -45.943091 13.346075 0.000000 0.000000 0.000000 28.467146 3.053673 -1.023644 44.274094 -14.787147 -9.832480 9.025205 31.994570 3.513270 0.000000 0.000000 0.000000 
0.009383 0.946385 0.713928 0.982720 5.588214 -5.631775 -4.835505 1.108922 8.795611 -2.055756 0.186121 1.152287 0.457022 1.745330 1.552952 0.000000 0.000000 0.000000 -3.220725 1.244528 -19.564104 0.810880 0.376017 36.325638 -3.064829 -8.389226 2.949475 0.000000 0.000000 0.000000 -3.246107 -0.131552 6.041206 2.945773 -1.380166 -0.797668 -3.148474 -4.480910 14.970687 -0.654431 0.731794 -4.592145 0.000000 0.000000 0.000000 -28.807704 -1.717809 -0.883238 -33.963838 1.246674 -5.099843 -30.923198 -45.329061 15.328009 0.000000 0.000000 0.000000 27.718177 3.164960 -0.810764 44.596085 -15.725330 -10.399515 10.234221 31.725981 3.828353 0.000000 0.000000 0.000000 
0.010532 0.943239 0.757827 1.151733 7.603120 -5.239257 -4.234176 1.424527 12.399500 -1.907875 0.178202 0.340110 0.113635 0.248755 0.008231 0.000000 0.000000 0.000000 -4.679182 0.909198 -19.717640 0.353304 0.349259 20.919100 -2.376550 -7.450099 6.332503 0.000000 0.000000 0.000000 -4.035914 -0.108442 6.119922 4.210708 -1.754758 -3.317449 -3.064500 -5.766647 17.265972 -0.787551 0.817803 -5.096336 0.000000 0.000000 0.000000 -29.306020 -0.885422 -1.275313 -33.975948 0.847503 -5.191185 -34.773732 -45.318584 17.175067 0.000000 0.000000 0.000000 26.943262 3.146030 -0.730945 45.119111 -15.511254 -10.634778 10.969560 30.689863 3.893226 0.000000 0.000000 0.000000 
0.009686 0.937923 0.803815 1.484293 8.540149 -4.383826 -3.883527 1.637406 15.174838 -1.755092 0.162614 0.199059 -0.193247 -0.633440 -0.412179 0.000000 0.000000 0.000000 -6.155577 0.609723 -20.196464 -0.639083 0.358906 7.997160 -1.021888 -5.147545 9.177557 0.000000 0.000000 0.000000 -4.472959 -0.080869 5.638311 5.001208 -1.915680 -5.262336 -2.961294 -6.450865 19.011491 -0.684788 0.757150 -6.180545 0.000000 0.000000 0.000000 -29.831040 0.426401 -2.047930 -34.055294 2.190081 -5.663997 -40.648605 -44.507213 19.630488 0.000000 0.000000 0.000000 27.677562 2.384053 -1.261847 44.006188 -15.690375 -10.499210 10.638981 30.363372 3.768281 0.000000 0.000000 0.000000 
0.006786 0.930284 0.852685 2.091329 10.508058 -4.032929 -2.652172 1.530501 17.026533 -1.865473 0.107871 2.700288 -0.030103 -2.070996 -3.214928 0.000000 0.000000 0.000000 -7.020059 0.342010 -20.463552 -1.091096 0.251377 2.782530 -1.049543 -5.261842 10.472519 0.000000 0.000000 0.000000 -4.415484 -0.086882 5.582770 5.103517 -1.849521 -6.098465 -3.355474 -7.740485 18.897348 -0.125994 0.263011 -6.002971 0.000000 0.000000 0.000000 -29.909525 -0.288465 -1.537517 -32.864926 4.982601 -6.109846 -43.970147 -44.537063 21.152129 0.000000 0.000000 0.000000 27.762034 2.155547 -1.472629 44.575023 -17.917693 -11.385899 11.762535 30.129217 4.011297 0.000000 0.000000 0.000000 
0.001900 0.924880 0.905012 2.296376 11.415416 -4.685396 -2.154964 1.576876 19.930961 -1.094427 -0.058315 4.868663 -0.457410 -2.774482 -2.850791 0.000000 0.000000 0.000000 -6.430391 0.396523 -19.236145 -0.953470 0.195842 1.860409 -1.787644 -6.905710 12.258129 0.000000 0.000000 0.000000 -3.912333 -0.136860 6.868586 5.212932 -1.817358 -6.780872 -3.798348 -7.667977 18.487156 0.226084 0.070062 -6.604795 0.000000 0.000000 0.000000 -28.672007 0.113345 -1.982805 -33.544827 7.685922 -6.783560 -46.976052 -41.879312 21.052234 0.000000 0.000000 0.000000 27.386240 0.500741 -2.258194 43.209757 -18.893515 -11.348045 15.185911 29.066988 4.714326 0.000000 0.000000 0.000000 
